<?xml version="1.0" standalone="no"?>
<!DOCTYPE svg PUBLIC "-//W3C//DTD SVG 20010904//EN"
 "http://www.w3.org/TR/2001/REC-SVG-20010904/DTD/svg10.dtd">
<svg version="1.0" xmlns="http://www.w3.org/2000/svg"
 width="500.000000pt" height="500.000000pt" viewBox="0 0 500.000000 500.000000"
 preserveAspectRatio="xMidYMid meet">

<g transform="translate(0.000000,500.000000) scale(0.100000,-0.100000)"
fill="#000000" stroke="none">
<path d="M4043 3339 c-64 -18 -110 -107 -167 -324 -21 -79 -45 -145 -54 -152
-9 -7 -37 -13 -64 -13 -29 0 -48 -4 -48 -11 0 -13 69 -84 88 -90 10 -3 9 -25
-4 -108 -14 -87 -14 -105 -3 -112 16 -10 64 -11 107 -3 39 8 48 34 56 164 6
88 9 97 34 117 23 20 163 85 169 80 1 -1 9 -56 18 -122 25 -183 63 -244 162
-252 55 -4 89 11 61 27 -20 12 -30 59 -58 270 -32 242 -61 402 -77 435 -46 91
-121 123 -220 94z m87 -171 c6 -46 12 -112 13 -148 l2 -65 -69 -7 c-38 -5 -71
-6 -73 -4 -13 13 90 306 107 306 4 0 13 -37 20 -82z"/>
<path d="M3444 3216 c-33 -12 -85 -37 -113 -55 -53 -32 -53 -32 -98 -17 -25 9
-49 13 -54 10 -5 -3 -9 -33 -9 -66 0 -57 -2 -63 -42 -106 l-41 -45 24 -20 c24
-19 24 -22 25 -201 2 -213 14 -273 74 -352 45 -60 81 -74 128 -50 33 17 42 34
42 78 0 25 -3 28 -14 19 -10 -9 -16 -8 -26 3 -12 16 -37 152 -28 161 2 3 42
-9 89 -26 115 -43 245 -51 307 -20 46 23 62 46 62 86 0 22 -3 26 -17 19 -54
-24 -209 -12 -276 23 l-28 14 38 28 c103 75 197 210 228 327 24 89 14 125 -47
174 -46 36 -56 40 -107 39 -32 0 -82 -10 -117 -23z m162 -140 c16 -65 -102
-210 -224 -274 -35 -19 -66 -32 -69 -29 -11 12 17 211 33 228 8 9 51 35 95 58
97 50 155 56 165 17z"/>
<path d="M2658 3054 c-55 -29 -116 -145 -149 -279 -48 -202 -2 -468 94 -532
41 -28 122 -44 168 -34 79 18 124 62 182 176 60 120 107 335 93 427 -13 83
-76 149 -155 163 -22 4 -49 17 -62 32 -30 31 -91 63 -121 63 -13 -1 -35 -7
-50 -16z m227 -249 c16 -104 -38 -345 -101 -452 l-28 -48 -17 40 c-67 150 -43
424 46 541 l28 37 33 -36 c23 -24 35 -49 39 -82z"/>
<path d="M1842 2917 c-5 -6 -15 -48 -22 -92 -17 -107 -21 -115 -69 -150 -22
-16 -41 -34 -41 -40 0 -5 16 -25 35 -45 l34 -35 -9 -90 c-6 -50 -10 -148 -9
-219 l1 -129 -28 -23 -29 -23 41 -16 c27 -11 46 -28 60 -52 21 -41 67 -73 103
-73 40 0 110 40 126 71 24 45 18 51 -25 27 -35 -20 -42 -21 -50 -8 -5 8 -10
18 -10 21 0 3 31 23 70 44 163 89 293 222 367 373 77 157 71 242 -24 343 -78
84 -189 109 -303 69 -71 -25 -75 -25 -113 4 -56 41 -94 57 -105 43z m447 -163
c22 -16 23 -22 19 -88 -8 -111 -54 -192 -197 -339 -80 -83 -158 -144 -169
-132 -11 11 -6 253 8 348 l12 88 52 38 c114 86 225 120 275 85z"/>
<path d="M1466 2523 c-3 -82 -11 -188 -16 -238 -16 -147 -13 -220 10 -266 35
-67 115 -102 184 -79 20 6 36 14 36 17 0 3 -11 18 -24 34 -41 48 -43 93 -20
479 6 97 5 107 -15 131 -22 28 -99 69 -129 69 -17 0 -20 -13 -26 -147z"/>
<path d="M661 2577 c-37 -46 -100 -597 -88 -783 5 -83 24 -137 52 -148 29 -11
111 -6 129 7 17 12 18 20 7 79 -6 35 -11 100 -11 144 0 103 19 392 28 422 6
18 18 -15 51 -133 40 -144 46 -157 73 -171 34 -17 103 -13 132 9 8 7 35 66 59
132 58 159 107 274 119 281 7 4 7 -20 2 -72 -4 -44 -7 -149 -8 -234 0 -191 8
-215 71 -214 73 1 72 -4 72 265 0 132 3 244 6 250 12 19 -7 121 -26 140 -25
25 -103 25 -149 1 -52 -28 -105 -104 -145 -211 -19 -53 -43 -114 -53 -135
l-19 -40 -27 109 c-34 135 -58 181 -103 196 -26 8 -33 16 -33 35 0 38 -16 61
-51 73 -43 15 -74 14 -88 -2z"/>
</g>
</svg>
