<?xml version="1.0" standalone="no"?>
<!DOCTYPE svg PUBLIC "-//W3C//DTD SVG 20010904//EN"
 "http://www.w3.org/TR/2001/REC-SVG-20010904/DTD/svg10.dtd">
<svg version="1.0" xmlns="http://www.w3.org/2000/svg"
 width="180.000000pt" height="180.000000pt" viewBox="0 0 180.000000 180.000000"
 preserveAspectRatio="xMidYMid meet">

<g transform="translate(0.000000,180.000000) scale(0.100000,-0.100000)"
fill="#000000" stroke="none">
<path d="M805 1790 c-369 -34 -679 -302 -776 -671 -29 -110 -31 -297 -5 -412
38 -167 109 -299 228 -423 183 -191 385 -276 653 -275 142 0 261 25 369 76
255 121 437 345 502 620 22 94 22 296 0 388 -44 179 -107 297 -230 425 -197
206 -449 298 -741 272z m661 -677 c20 -26 41 -78 62 -149 47 -161 49 -174 24
-174 -16 0 -24 12 -37 50 -9 28 -19 50 -21 50 -2 0 -22 -11 -44 -25 -30 -19
-39 -32 -42 -57 -2 -21 -8 -33 -18 -33 -18 0 -19 50 -1 210 21 197 22 199 77
128z m-445 -24 c13 -7 18 -17 14 -28 -3 -10 1 -23 9 -30 43 -36 45 -173 2
-266 -23 -51 -27 -55 -60 -55 -45 0 -71 32 -87 108 -14 71 -7 145 21 211 30
68 57 84 101 60z m227 -22 c17 -13 15 -67 -4 -113 -9 -22 -20 -54 -24 -72 -8
-31 -6 -34 33 -55 23 -12 51 -24 62 -27 24 -7 27 -33 3 -38 -9 -2 -39 8 -67
22 -28 14 -55 26 -60 26 -5 0 -11 -17 -13 -37 -2 -31 -7 -39 -25 -41 -18 -3
-23 2 -24 20 0 13 -6 64 -12 114 -7 50 -12 115 -12 144 l0 54 45 11 c46 12 76
9 98 -8z m-498 -12 c82 -8 112 -54 112 -171 -1 -113 -32 -204 -70 -204 -9 0
-33 5 -53 10 l-36 10 -21 159 c-12 88 -19 168 -15 178 9 24 25 34 43 27 8 -4
26 -8 40 -9z m-136 -51 c19 -18 20 -24 42 -186 18 -135 16 -158 -13 -158 -24
0 -48 81 -64 211 -16 130 -4 173 35 133z m-174 -27 c37 -30 70 -81 88 -139 39
-121 53 -191 42 -202 -22 -22 -45 12 -75 112 -16 56 -33 102 -36 102 -4 0 -10
-30 -14 -67 -4 -38 -11 -76 -16 -85 -13 -24 -40 -23 -46 2 -3 10 -18 45 -34
77 l-28 58 6 -107 c5 -96 4 -108 -11 -114 -10 -4 -21 -3 -26 2 -12 12 -43 280
-35 294 8 13 51 13 76 0 10 -6 26 -25 36 -43 l17 -32 7 30 c4 17 7 48 8 71 1
54 12 65 41 41z"/>
<path d="M1440 1020 c0 -14 -3 -42 -6 -62 -7 -39 4 -48 34 -29 11 7 11 16 1
52 -15 54 -29 72 -29 39z"/>
<path d="M983 963 c-20 -54 -25 -184 -7 -190 19 -6 48 125 45 205 -1 46 -16
40 -38 -15z"/>
<path d="M1160 996 c0 -18 3 -48 6 -66 l7 -32 28 62 c16 34 29 63 29 66 0 2
-16 4 -35 4 -33 0 -35 -2 -35 -34z"/>
<path d="M755 929 c4 -46 11 -104 14 -129 l7 -45 13 60 c7 33 17 77 22 97 9
36 -4 88 -22 88 -4 0 -15 3 -24 7 -16 5 -17 -1 -10 -78z"/>
</g>
</svg>
